<svg width="82" height="50" viewBox="0 0 82 50" fill="none" xmlns="http://www.w3.org/2000/svg">
<g filter="url(#filter0_d_15_698)">
<rect x="2" y="1" width="78" height="46" rx="23" fill="#3C4043"/>
<path d="M20.885 17.285H28.295V18.815H20.885V17.285ZM20.72 23.315L20.525 21.74C22.94 21.74 26.135 21.71 28.775 21.41L28.865 22.835C26.165 23.27 23.09 23.3 20.72 23.315ZM21.98 18.05H23.9V22.655H21.98V18.05ZM25.295 18.05H27.2V22.655H25.295V18.05ZM29.54 16.445H31.535V23.555H29.54V16.445ZM30.725 19.16H33.365V20.78H30.725V19.16ZM22.355 24.11H31.535V27.86H24.365V29.525H22.385V26.435H29.57V25.64H22.355V24.11ZM22.385 28.7H31.94V30.245H22.385V28.7ZM34.4138 27.185H46.9838V28.805H34.4138V27.185ZM39.6788 24.56H41.6738V27.845H39.6788V24.56ZM35.8238 17.345H45.5738V21.965H37.8338V24.305H35.8538V20.405H43.5938V18.92H35.8238V17.345ZM35.8538 23.51H45.8888V25.115H35.8538V23.51ZM48.1977 24.215H60.7827V25.82H48.1977V24.215ZM53.4477 25.25H55.4277V30.35H53.4477V25.25ZM54.4527 16.91C57.4227 16.91 59.4777 18.14 59.4777 20.045C59.4777 21.935 57.4227 23.15 54.4527 23.15C51.4977 23.15 49.4427 21.935 49.4427 20.045C49.4427 18.14 51.4977 16.91 54.4527 16.91ZM54.4527 18.5C52.6377 18.5 51.4827 19.04 51.4827 20.045C51.4827 21.035 52.6377 21.575 54.4527 21.575C56.2827 21.575 57.4227 21.035 57.4227 20.045C57.4227 19.04 56.2827 18.5 54.4527 18.5Z" fill="white"/>
</g>
<defs>
<filter id="filter0_d_15_698" x="0" y="0" width="82" height="50" filterUnits="userSpaceOnUse" color-interpolation-filters="sRGB">
<feFlood flood-opacity="0" result="BackgroundImageFix"/>
<feColorMatrix in="SourceAlpha" type="matrix" values="0 0 0 0 0 0 0 0 0 0 0 0 0 0 0 0 0 0 127 0" result="hardAlpha"/>
<feOffset dy="1"/>
<feGaussianBlur stdDeviation="1"/>
<feComposite in2="hardAlpha" operator="out"/>
<feColorMatrix type="matrix" values="0 0 0 0 0.0627451 0 0 0 0 0.0941176 0 0 0 0 0.156863 0 0 0 0.04 0"/>
<feBlend mode="normal" in2="BackgroundImageFix" result="effect1_dropShadow_15_698"/>
<feBlend mode="normal" in="SourceGraphic" in2="effect1_dropShadow_15_698" result="shape"/>
</filter>
</defs>
</svg>
