<svg width="96" height="50" viewBox="0 0 96 50" fill="none" xmlns="http://www.w3.org/2000/svg">
<g filter="url(#filter0_d_51_5090)">
<rect x="2" y="1" width="92" height="46" rx="23" fill="#3C4043"/>
<path d="M27.575 20.105H31.085V21.695H27.575V20.105ZM30.23 16.46H32.225V26.6H30.23V16.46ZM23.06 28.505H32.54V30.095H23.06V28.505ZM23.06 25.595H25.055V29.315H23.06V25.595ZM24.44 17.285C26.495 17.285 28.1 18.77 28.1 20.84C28.1 22.895 26.495 24.395 24.44 24.395C22.37 24.395 20.765 22.895 20.765 20.84C20.765 18.77 22.37 17.285 24.44 17.285ZM24.44 19.025C23.435 19.025 22.67 19.685 22.67 20.84C22.67 21.98 23.435 22.655 24.44 22.655C25.43 22.655 26.195 21.98 26.195 20.84C26.195 19.685 25.43 19.025 24.44 19.025ZM34.6838 17.285H42.0938V18.815H34.6838V17.285ZM34.5188 23.315L34.3238 21.74C36.7388 21.74 39.9338 21.71 42.5738 21.41L42.6638 22.835C39.9638 23.27 36.8888 23.3 34.5188 23.315ZM35.7788 18.05H37.6988V22.655H35.7788V18.05ZM39.0938 18.05H40.9988V22.655H39.0938V18.05ZM43.3388 16.445H45.3338V23.555H43.3388V16.445ZM44.5238 19.16H47.1638V20.78H44.5238V19.16ZM36.1538 24.11H45.3338V27.86H38.1638V29.525H36.1838V26.435H43.3688V25.64H36.1538V24.11ZM36.1838 28.7H45.7388V30.245H36.1838V28.7ZM48.2127 27.185H60.7827V28.805H48.2127V27.185ZM53.4777 24.56H55.4727V27.845H53.4777V24.56ZM49.6227 17.345H59.3727V21.965H51.6327V24.305H49.6527V20.405H57.3927V18.92H49.6227V17.345ZM49.6527 23.51H59.6877V25.115H49.6527V23.51ZM61.9965 24.215H74.5815V25.82H61.9965V24.215ZM67.2465 25.25H69.2265V30.35H67.2465V25.25ZM68.2515 16.91C71.2215 16.91 73.2765 18.14 73.2765 20.045C73.2765 21.935 71.2215 23.15 68.2515 23.15C65.2965 23.15 63.2415 21.935 63.2415 20.045C63.2415 18.14 65.2965 16.91 68.2515 16.91ZM68.2515 18.5C66.4365 18.5 65.2815 19.04 65.2815 20.045C65.2815 21.035 66.4365 21.575 68.2515 21.575C70.0815 21.575 71.2215 21.035 71.2215 20.045C71.2215 19.04 70.0815 18.5 68.2515 18.5Z" fill="white"/>
</g>
<defs>
<filter id="filter0_d_51_5090" x="0" y="0" width="96" height="50" filterUnits="userSpaceOnUse" color-interpolation-filters="sRGB">
<feFlood flood-opacity="0" result="BackgroundImageFix"/>
<feColorMatrix in="SourceAlpha" type="matrix" values="0 0 0 0 0 0 0 0 0 0 0 0 0 0 0 0 0 0 127 0" result="hardAlpha"/>
<feOffset dy="1"/>
<feGaussianBlur stdDeviation="1"/>
<feComposite in2="hardAlpha" operator="out"/>
<feColorMatrix type="matrix" values="0 0 0 0 0.0627451 0 0 0 0 0.0941176 0 0 0 0 0.156863 0 0 0 0.04 0"/>
<feBlend mode="normal" in2="BackgroundImageFix" result="effect1_dropShadow_51_5090"/>
<feBlend mode="normal" in="SourceGraphic" in2="effect1_dropShadow_51_5090" result="shape"/>
</filter>
</defs>
</svg>
