<svg width="132" height="50" viewBox="0 0 132 50" fill="none" xmlns="http://www.w3.org/2000/svg">
<g filter="url(#filter0_d_15_593)">
<rect x="2.5" y="1" width="127" height="46" rx="23" fill="#3C4043"/>
<path d="M24.625 24.89H26.62V27.14H24.625V24.89ZM30.7 16.445H32.695V30.335H30.7V16.445ZM21.415 28.025L21.175 26.42C23.695 26.405 27.055 26.405 29.98 26.015L30.115 27.455C27.1 28.01 23.875 28.025 21.415 28.025ZM21.445 17.975H29.8V19.535H21.445V17.975ZM25.615 20.09C27.67 20.09 29.095 21.14 29.095 22.685C29.095 24.245 27.67 25.295 25.615 25.295C23.59 25.295 22.165 24.245 22.165 22.685C22.165 21.14 23.59 20.09 25.615 20.09ZM25.615 21.59C24.715 21.59 24.07 21.98 24.07 22.685C24.07 23.405 24.715 23.795 25.615 23.795C26.545 23.795 27.19 23.405 27.19 22.685C27.19 21.98 26.545 21.59 25.615 21.59ZM24.625 16.505H26.62V18.875H24.625V16.505ZM38.5138 23.57H40.5088V26.615H38.5138V23.57ZM44.6038 16.445H46.5988V26.96H44.6038V16.445ZM36.5938 28.505H46.8988V30.095H36.5938V28.505ZM36.5938 25.97H38.5888V28.925H36.5938V25.97ZM35.0938 24.17L34.8538 22.58C37.3888 22.58 40.7788 22.55 43.6888 22.175L43.8088 23.6C40.8538 24.095 37.5988 24.17 35.0938 24.17ZM41.9788 24.515H45.0388V25.88H41.9788V24.515ZM39.3238 16.925C41.3488 16.925 42.7738 17.93 42.7738 19.4C42.7738 20.885 41.3488 21.875 39.3238 21.875C37.2838 21.875 35.8588 20.885 35.8588 19.4C35.8588 17.93 37.2838 16.925 39.3238 16.925ZM39.3238 18.38C38.3938 18.38 37.7488 18.725 37.7488 19.4C37.7488 20.075 38.3938 20.42 39.3238 20.42C40.2388 20.42 40.8838 20.075 40.8838 19.4C40.8838 18.725 40.2388 18.38 39.3238 18.38ZM59.9484 19.805H62.5884V21.425H59.9484V19.805ZM62.0484 16.445H64.0434V24.695H62.0484V16.445ZM59.3334 24.995C62.2734 24.995 64.0884 26 64.0884 27.68C64.0884 29.375 62.2734 30.35 59.3334 30.35C56.3934 30.35 54.5784 29.375 54.5784 27.68C54.5784 26 56.3934 24.995 59.3334 24.995ZM59.3334 26.51C57.5334 26.51 56.5734 26.885 56.5734 27.68C56.5734 28.46 57.5334 28.835 59.3334 28.835C61.1484 28.835 62.1084 28.46 62.1084 27.68C62.1084 26.885 61.1484 26.51 59.3334 26.51ZM55.6284 17.84H57.2484V18.71C57.2484 21.365 56.0184 23.795 53.3634 24.695L52.3434 23.12C54.6384 22.34 55.6284 20.495 55.6284 18.71V17.84ZM56.0484 17.84H57.6534V18.71C57.6534 20.345 58.5984 22.04 60.7884 22.775L59.8134 24.35C57.2334 23.495 56.0484 21.185 56.0484 18.71V17.84ZM52.8834 17.285H60.3534V18.875H52.8834V17.285ZM66.2322 27.11H78.8022V28.73H66.2322V27.11ZM71.4972 24.14H73.4922V27.5H71.4972V24.14ZM67.5522 17.33H69.5322V19.46H75.4572V17.33H77.4372V24.56H67.5522V17.33ZM69.5322 21.02V22.97H75.4572V21.02H69.5322ZM88.9717 16.85H90.7267V17.495C90.7267 20.165 88.6267 22.43 84.9817 22.97L84.2017 21.365C87.3967 20.945 88.9717 19.13 88.9717 17.495V16.85ZM89.3467 16.85H91.0867V17.495C91.0867 19.115 92.6767 20.945 95.8567 21.365L95.0917 22.97C91.4467 22.43 89.3467 20.165 89.3467 17.495V16.85ZM88.9867 25.25H90.9667V30.335H88.9867V25.25ZM83.7517 23.99H96.3067V25.61H83.7517V23.99ZM105.066 19.805H107.706V21.425H105.066V19.805ZM107.166 16.445H109.161V24.695H107.166V16.445ZM104.451 24.995C107.391 24.995 109.206 26 109.206 27.68C109.206 29.375 107.391 30.35 104.451 30.35C101.511 30.35 99.6955 29.375 99.6955 27.68C99.6955 26 101.511 24.995 104.451 24.995ZM104.451 26.51C102.651 26.51 101.691 26.885 101.691 27.68C101.691 28.46 102.651 28.835 104.451 28.835C106.266 28.835 107.226 28.46 107.226 27.68C107.226 26.885 106.266 26.51 104.451 26.51ZM100.746 17.84H102.366V18.71C102.366 21.365 101.136 23.795 98.4805 24.695L97.4605 23.12C99.7555 22.34 100.746 20.495 100.746 18.71V17.84ZM101.166 17.84H102.771V18.71C102.771 20.345 103.716 22.04 105.906 22.775L104.931 24.35C102.351 23.495 101.166 21.185 101.166 18.71V17.84ZM98.0005 17.285H105.471V18.875H98.0005V17.285Z" fill="white"/>
</g>
<defs>
<filter id="filter0_d_15_593" x="0.5" y="0" width="131" height="50" filterUnits="userSpaceOnUse" color-interpolation-filters="sRGB">
<feFlood flood-opacity="0" result="BackgroundImageFix"/>
<feColorMatrix in="SourceAlpha" type="matrix" values="0 0 0 0 0 0 0 0 0 0 0 0 0 0 0 0 0 0 127 0" result="hardAlpha"/>
<feOffset dy="1"/>
<feGaussianBlur stdDeviation="1"/>
<feComposite in2="hardAlpha" operator="out"/>
<feColorMatrix type="matrix" values="0 0 0 0 0.0627451 0 0 0 0 0.0941176 0 0 0 0 0.156863 0 0 0 0.04 0"/>
<feBlend mode="normal" in2="BackgroundImageFix" result="effect1_dropShadow_15_593"/>
<feBlend mode="normal" in="SourceGraphic" in2="effect1_dropShadow_15_593" result="shape"/>
</filter>
</defs>
</svg>
