<svg width="264" height="32" viewBox="0 0 264 32" fill="none" xmlns="http://www.w3.org/2000/svg">
<g clip-path="url(#clip0_4_3922)">
<path d="M15.9458 31.3677C12.7567 31.3677 9.91703 30.6622 7.38319 29.207C5.54834 28.1487 3.97561 26.7376 2.75238 24.9296C1.52914 23.1657 0.699093 21.1373 0.262224 18.9324C-0.130958 16.7276 -0.0872711 14.5669 0.393285 12.4502C0.917528 10.1572 1.87864 8.17283 3.32031 6.40896C4.80566 4.601 6.59683 3.1899 8.6938 2.17568C10.5723 1.24965 12.6256 0.720486 14.8537 0.544099C16.8196 0.411809 18.8292 0.544099 20.9261 1.02916C22.8484 1.42603 24.7269 2.08748 26.5617 3.01352L22.3678 11.2596C19.965 10.1131 17.6933 9.58393 15.509 9.76031C14.4605 9.84851 13.543 10.069 12.7567 10.4218C11.9266 10.8186 11.2713 11.3478 10.6597 12.0533C10.1792 12.6707 9.87334 13.3762 9.65491 14.17C9.43648 14.9637 9.43648 17.1245 9.61122 17.9623C9.74228 18.756 10.0481 19.5057 10.485 20.123C10.9218 20.7404 11.4461 21.2696 12.014 21.5782C13.3246 22.3279 14.941 22.6366 16.8632 22.4602C18.6544 22.3279 20.533 21.7987 22.4989 20.9168L26.387 28.8983C23.46 30.2212 20.533 30.9708 17.6496 31.2354C17.038 31.2795 16.4701 31.2795 15.9458 31.2795V31.3677Z" fill="#006240"/>
<path d="M32.1536 30.574V2.13159H42.4637V30.574H32.1536Z" fill="#006240"/>
<path d="M58.584 2.35205L66.5351 16.8599V2.35205H74.8356V30.4858H66.5351L58.584 17.1686V30.4858H49.803V2.35205H58.584Z" fill="#006240"/>
<path d="M82.481 2.21979H106.159V9.31936H92.3105V13.0676H103.975V19.7703H92.3105V23.5626H106.159V30.6622H82.481V2.21979Z" fill="#006240"/>
<path d="M136.696 16.9481C138.182 18.0946 138.924 19.9907 138.924 22.5924C138.924 24.3122 138.444 25.9438 137.439 27.4872C136.128 29.5156 134.206 30.5299 131.672 30.5299H113.062V2.30795H128.09C131.41 2.30795 134.031 3.14579 135.997 4.82147C137.963 6.49714 138.924 8.92246 138.924 12.1415C138.924 14.1259 138.182 15.7134 136.696 16.9481ZM122.673 9.05475V14.9196H126.08C128.134 14.9196 129.139 13.9495 129.139 12.0092V11.921C129.139 10.0249 128.134 9.05475 126.124 9.05475H122.673ZM129.139 22.4602C129.139 20.4758 128.134 19.5498 126.124 19.5498H122.673V25.3705H126.08C128.134 25.3705 129.139 24.4004 129.139 22.4602Z" fill="#006240"/>
<path d="M171.384 18.271C171.384 22.5484 170.248 25.7674 167.932 27.9722C165.617 30.2212 162.297 31.3236 157.885 31.3236C153.472 31.3236 150.239 30.1771 147.88 27.9282C145.521 25.6792 144.385 22.4602 144.385 18.3151V2.35205H154.084V16.5512C154.084 18.8883 154.39 20.5199 154.957 21.5341C155.525 22.5484 156.487 23.0334 157.797 23.0334C159.108 23.0334 160.069 22.4602 160.724 21.3136C161.379 20.1671 161.685 18.4474 161.685 16.1543V2.35205H171.384V18.271Z" fill="#006240"/>
<path d="M191.917 31.3677C188.859 31.3677 186.106 30.6622 183.66 29.2952C181.869 28.2809 180.383 26.9139 179.204 25.1501C178.024 23.4303 177.194 21.49 176.801 19.3734C176.408 17.2567 176.452 15.1842 176.932 13.1117C177.413 10.9068 178.374 8.96656 179.772 7.29089C181.213 5.52702 182.917 4.16002 184.927 3.18989C186.718 2.35205 188.728 1.82289 190.868 1.6906C192.747 1.55831 194.713 1.6906 196.722 2.13157C198.557 2.52844 200.392 3.14579 202.139 4.02773L198.12 12.4061C195.805 11.3037 193.621 10.8186 191.48 10.9509C190.475 11.0391 189.601 11.2596 188.815 11.6124C188.029 12.0092 187.373 12.5384 186.805 13.1998C186.368 13.7731 186.019 14.4787 185.844 15.2724C185.669 16.0661 185.669 16.8599 185.844 17.6977C185.975 18.4915 186.281 19.1529 186.674 19.7703C187.067 20.3876 187.592 20.8727 188.16 21.1814C189.427 21.931 190.999 22.1956 192.834 22.0633C194.582 21.931 196.373 21.4459 198.251 20.6081L202.008 29.1188C199.169 30.3976 196.373 31.1472 193.577 31.3677C193.009 31.3677 192.441 31.4118 191.917 31.4118V31.3677Z" fill="#006240"/>
<path d="M223.939 30.6622L217.604 20.2994V30.6622H207.775V2.26385H217.604V12.6707L223.546 2.26385H234.511L225.293 16.2425L235.735 30.6622H223.983H223.939Z" fill="#006240"/>
<path d="M250.763 31.5C246.569 31.5 242.55 30.2653 238.749 27.7959L242.419 21.005C243.249 21.7546 244.385 22.4602 245.783 23.1216C247.093 23.7831 248.622 24.0917 250.326 24.0917C251.025 24.0917 251.68 24.0036 252.248 23.8272C252.86 23.6508 253.209 23.2098 253.34 22.5043C253.34 22.3279 253.34 22.1515 253.253 21.931C253.166 21.7546 253.078 21.6223 252.86 21.49C252.641 21.3578 252.51 21.2255 252.336 21.1373C252.161 21.0491 251.899 20.9168 251.549 20.8286C251.2 20.7404 250.894 20.6522 250.632 20.564C250.37 20.4758 250.02 20.3876 249.496 20.2994C249.015 20.1671 248.579 20.0789 248.273 19.9908C247.312 19.7703 246.438 19.5057 245.652 19.197C244.865 18.8883 244.079 18.5356 243.336 18.0505C242.593 17.5654 241.938 17.0363 241.414 16.463C240.89 15.8457 240.453 15.1401 240.103 14.2582C239.754 13.4203 239.579 12.4502 239.579 11.3919C239.579 9.76031 239.885 8.34922 240.54 7.07041C241.195 5.7916 242.069 4.77738 243.161 3.98364C244.254 3.1899 245.52 2.57254 246.962 2.17567C248.404 1.7788 249.977 1.55832 251.68 1.55832C255.35 1.55832 259.282 2.44025 263.388 4.24822L260.724 11.3037C258.758 10.0249 256.355 9.31934 253.559 9.09886C250.632 8.87838 249.147 9.23115 249.147 10.1572C249.147 10.2454 249.147 10.3777 249.234 10.5541C249.321 10.7304 249.452 10.8627 249.671 11.0391C249.889 11.1714 250.108 11.3037 250.282 11.3919C250.457 11.4801 250.807 11.6124 251.243 11.7006C251.68 11.7888 252.074 11.921 252.379 12.0092C253.078 12.1856 253.559 12.3179 253.821 12.362C253.908 12.362 253.952 12.362 253.996 12.362C254.738 12.5384 255.35 12.6707 255.962 12.8471C256.573 13.0235 257.185 13.244 257.884 13.5085C258.583 13.7731 259.238 14.0818 259.806 14.3905C260.374 14.6991 260.898 15.096 261.466 15.5811C262.034 16.0661 262.471 16.5953 262.821 17.1686C263.17 17.7418 263.476 18.4033 263.694 19.197C263.913 19.9907 264.044 20.8286 264.044 21.7546C264.044 23.2098 263.782 24.4886 263.301 25.591C262.777 26.7376 262.122 27.6636 261.291 28.3691C260.461 29.0747 259.457 29.692 258.277 30.1771C257.098 30.6622 255.918 30.9708 254.695 31.1913C253.472 31.3677 252.205 31.5 250.807 31.5H250.763Z" fill="#006240"/>
</g>
<defs>
<clipPath id="clip0_4_3922">
<rect width="264" height="31" fill="white" transform="translate(0 0.5)"/>
</clipPath>
</defs>
</svg>
