<svg width="56" height="22" viewBox="0 0 56 22" fill="none" xmlns="http://www.w3.org/2000/svg">
<g clip-path="url(#clip0_34_99)">
<path d="M0.615 14.185H13.185V15.805H0.615V14.185ZM5.88 11.56H7.875V14.845H5.88V11.56ZM2.025 4.345H11.775V8.965H4.035V11.305H2.055V7.405H9.795V5.92H2.025V4.345ZM2.055 10.51H12.09V12.115H2.055V10.51ZM15.6888 4.72H24.4938V6.295H15.6888V4.72ZM14.4138 13.9H26.9688V15.52H14.4138V13.9ZM23.4438 4.72H25.4238V6.37C25.4238 8.32 25.4238 10.21 24.9288 13.06L22.9338 12.895C23.4438 10.225 23.4438 8.245 23.4438 6.37V4.72ZM31.9177 4.405C34.0327 4.405 35.5627 6.325 35.5627 9.355C35.5627 12.415 34.0327 14.335 31.9177 14.335C29.8027 14.335 28.2727 12.415 28.2727 9.355C28.2727 6.325 29.8027 4.405 31.9177 4.405ZM31.9177 6.22C30.8827 6.22 30.1927 7.315 30.1927 9.355C30.1927 11.425 30.8827 12.535 31.9177 12.535C32.9527 12.535 33.6577 11.425 33.6577 9.355C33.6577 7.315 32.9527 6.22 31.9177 6.22ZM37.0777 3.445H39.0877V17.335H37.0777V3.445ZM38.6377 8.68H41.0977V10.33H38.6377V8.68ZM41.9965 9.535H54.5665V11.14H41.9965V9.535ZM47.2615 10.24H49.2415V12.445H47.2615V10.24ZM47.2165 13H48.9115V13.24C48.9115 15.265 47.0215 16.96 43.4515 17.29L42.8065 15.79C45.8365 15.52 47.2165 14.305 47.2165 13.24V13ZM47.5765 13H49.2715V13.24C49.2715 14.38 50.6065 15.535 53.6815 15.79L53.0515 17.29C49.4965 16.96 47.5765 15.355 47.5765 13.24V13ZM48.2815 3.595C51.3565 3.595 53.3065 4.57 53.3065 6.22C53.3065 7.87 51.3565 8.845 48.2815 8.845C45.2065 8.845 43.2565 7.87 43.2565 6.22C43.2565 4.57 45.2065 3.595 48.2815 3.595ZM48.2815 5.08C46.3615 5.08 45.3115 5.455 45.3115 6.22C45.3115 6.955 46.3615 7.345 48.2815 7.345C50.1865 7.345 51.2515 6.955 51.2515 6.22C51.2515 5.455 50.1865 5.08 48.2815 5.08Z" fill="#91918A"/>
</g>
<defs>
<clipPath id="clip0_34_99">
<rect width="56" height="22" rx="5" fill="white"/>
</clipPath>
</defs>
</svg>
