<svg width="56" height="22" viewBox="0 0 56 22" fill="none" xmlns="http://www.w3.org/2000/svg">
<g clip-path="url(#clip0_4_3930)">
<path d="M4.125 11.89H6.12V14.14H4.125V11.89ZM10.2 3.445H12.195V17.335H10.2V3.445ZM0.915 15.025L0.675 13.42C3.195 13.405 6.555 13.405 9.48 13.015L9.615 14.455C6.6 15.01 3.375 15.025 0.915 15.025ZM0.945 4.975H9.3V6.535H0.945V4.975ZM5.115 7.09C7.17 7.09 8.595 8.14 8.595 9.685C8.595 11.245 7.17 12.295 5.115 12.295C3.09 12.295 1.665 11.245 1.665 9.685C1.665 8.14 3.09 7.09 5.115 7.09ZM5.115 8.59C4.215 8.59 3.57 8.98 3.57 9.685C3.57 10.405 4.215 10.795 5.115 10.795C6.045 10.795 6.69 10.405 6.69 9.685C6.69 8.98 6.045 8.59 5.115 8.59ZM4.125 3.505H6.12V5.875H4.125V3.505ZM18.0138 10.57H20.0088V13.615H18.0138V10.57ZM24.1038 3.445H26.0988V13.96H24.1038V3.445ZM16.0938 15.505H26.3988V17.095H16.0938V15.505ZM16.0938 12.97H18.0888V15.925H16.0938V12.97ZM14.5938 11.17L14.3538 9.58C16.8888 9.58 20.2788 9.55 23.1888 9.175L23.3088 10.6C20.3538 11.095 17.0988 11.17 14.5938 11.17ZM21.4788 11.515H24.5388V12.88H21.4788V11.515ZM18.8238 3.925C20.8488 3.925 22.2738 4.93 22.2738 6.4C22.2738 7.885 20.8488 8.875 18.8238 8.875C16.7838 8.875 15.3588 7.885 15.3588 6.4C15.3588 4.93 16.7838 3.925 18.8238 3.925ZM18.8238 5.38C17.8938 5.38 17.2488 5.725 17.2488 6.4C17.2488 7.075 17.8938 7.42 18.8238 7.42C19.7388 7.42 20.3838 7.075 20.3838 6.4C20.3838 5.725 19.7388 5.38 18.8238 5.38ZM37.0777 3.43H39.0877V17.32H37.0777V3.43ZM38.5627 8.74H41.0077V10.375H38.5627V8.74ZM33.4327 4.87H35.3827C35.3827 9.04 33.7927 12.61 29.1727 14.935L28.0627 13.42C31.7077 11.53 33.4327 8.98 33.4327 5.215V4.87ZM28.8277 4.87H34.4527V6.475H28.8277V4.87ZM51.5365 3.445H53.5465V10.915H51.5365V3.445ZM44.3065 11.515H46.2715V12.805H51.5665V11.515H53.5465V17.185H44.3065V11.515ZM46.2715 14.335V15.595H51.5665V14.335H46.2715ZM45.9865 4.015C48.1465 4.015 49.7515 5.38 49.7515 7.3C49.7515 9.22 48.1465 10.585 45.9865 10.585C43.8265 10.585 42.2065 9.22 42.2065 7.3C42.2065 5.38 43.8265 4.015 45.9865 4.015ZM45.9865 5.665C44.9215 5.665 44.1565 6.28 44.1565 7.3C44.1565 8.335 44.9215 8.935 45.9865 8.935C47.0365 8.935 47.8015 8.335 47.8015 7.3C47.8015 6.28 47.0365 5.665 45.9865 5.665Z" fill="#006240"/>
</g>
<defs>
<clipPath id="clip0_4_3930">
<rect width="56" height="22" rx="5" fill="white"/>
</clipPath>
</defs>
</svg>
